<svg width="27" height="27" viewBox="0 0 27 27" fill="none" xmlns="http://www.w3.org/2000/svg">
<path fill-rule="evenodd" clip-rule="evenodd" d="M19.5797 18.4C20.1512 18.5721 20.6777 18.8685 21.121 19.2679C21.1958 19.3157 21.2442 19.3961 21.2504 19.485C21.2504 19.6172 21.1519 19.7471 20.9489 19.8709C20.5844 20.115 20.2328 20.3771 19.8953 20.6573C19.5623 20.929 19.2135 21.1804 18.8502 21.4093C18.8035 21.4341 18.7512 21.4476 18.6983 21.4487C18.624 21.4498 18.552 21.4217 18.498 21.37C18.3945 21.28 18.3839 21.1236 18.4739 21.0201C18.4761 21.0173 18.4789 21.0145 18.4812 21.0122C18.5948 20.866 18.7427 20.7495 18.912 20.6741C19.1112 20.565 19.2996 20.4373 19.4757 20.2939C19.7575 20.0796 19.9262 19.9361 20.0393 19.8715C20.262 19.759 20.3774 19.6796 20.3774 19.6318C20.3796 19.6217 20.3796 19.611 20.3774 19.6009C20.2384 19.372 20.023 19.2004 19.7687 19.116C19.5179 19.0457 19.2614 18.9698 19.0054 18.8905C18.7489 18.8263 18.5166 18.6908 18.3349 18.499C18.3293 18.4815 18.3293 18.463 18.3349 18.4455C18.3439 18.3656 18.3833 18.292 18.4446 18.2396C18.4952 18.1766 18.5695 18.1373 18.6505 18.13C18.6915 18.1243 18.7332 18.1243 18.7742 18.13C18.925 18.1384 19.0735 18.1744 19.2107 18.2368L19.6191 18.4146M7.57373 18.1575C7.67555 18.1558 7.77511 18.1885 7.85555 18.2503C7.92305 18.3021 7.96355 18.382 7.96523 18.4675C7.9658 18.5282 7.94105 18.5861 7.89773 18.6283C7.59398 18.8961 7.23792 19.0986 6.85261 19.2229C6.46448 19.3466 6.12136 19.5818 5.86655 19.899C6.22992 20.11 6.6068 20.2984 6.9938 20.4626L8.16042 20.9756C8.25098 21.0116 8.30836 21.1011 8.30386 21.1984C8.32073 21.3306 8.26336 21.4616 8.1548 21.5393C8.04792 21.6276 7.91292 21.6754 7.77455 21.6743C7.7183 21.6743 7.66261 21.663 7.61086 21.6405C7.53155 21.5629 7.44661 21.4915 7.35717 21.4262C6.68105 21.0505 5.95767 20.6995 5.18761 20.3726C5.11167 20.3417 5.03292 20.3108 4.95642 20.2855C4.87148 20.2511 4.80848 20.1775 4.78711 20.088C4.79048 19.8518 4.89286 19.6285 5.06892 19.471C5.43117 19.2071 5.8238 18.9878 6.23836 18.8173C6.6563 18.6503 7.05061 18.4281 7.41061 18.1581L7.57373 18.1575Z" fill="#5D4037"/>
<path fill-rule="evenodd" clip-rule="evenodd" d="M12.4036 18.135C12.3074 17.9859 12.1876 17.8537 12.0486 17.7435C11.9373 17.6658 11.804 17.6253 11.6684 17.6282C11.6228 17.627 11.5778 17.6355 11.5362 17.6535L10.6908 17.9353C10.6368 17.9522 10.5811 17.9595 10.5243 17.9578C10.4241 17.9651 10.3246 17.937 10.2425 17.879C10.1401 17.7902 10.0535 17.6844 9.98595 17.5663L9.75195 17.7243C9.85095 17.8903 9.97864 18.0371 10.1294 18.158C10.2481 18.2323 10.3865 18.2688 10.5265 18.2621C10.598 18.2615 10.6694 18.2508 10.738 18.2312L11.5188 17.9493C11.5716 17.9291 11.6279 17.9184 11.6853 17.9184C11.7708 17.9128 11.8563 17.9358 11.9277 17.9831C12.0261 18.0635 12.1116 18.1586 12.1814 18.2649L12.4041 18.1412" fill="#5D4037"/>
<path fill-rule="evenodd" clip-rule="evenodd" d="M18.1623 22.8432C18.5904 25.407 15.4573 25.6607 14.1697 24.5025C13.2793 23.7077 13.5302 22.6007 14.8065 22.671C15.9337 22.7307 16.5902 24.1785 18.1623 22.8432Z" fill="#5D4037"/>
<path fill-rule="evenodd" clip-rule="evenodd" d="M8.64239 22.8432C8.21433 25.407 11.3475 25.6607 12.635 24.5025C13.5255 23.7077 13.2746 22.6007 11.9983 22.671C10.871 22.7307 10.2146 24.1785 8.64239 22.8432Z" fill="#5D4037"/>
<path fill-rule="evenodd" clip-rule="evenodd" d="M11.7218 19.1239C11.5649 19.0204 11.3798 18.9687 11.192 18.9748C10.9647 18.9664 10.7431 19.0474 10.5749 19.2004C10.3848 19.3872 10.3038 19.6583 10.3606 19.9187C10.3882 20.164 10.486 20.3957 10.6424 20.5864C10.7752 20.7642 10.9838 20.8688 11.206 20.8682C11.3512 20.866 11.4935 20.8272 11.62 20.7557C11.8737 20.6038 11.9975 20.3164 11.9975 19.885C12.0301 19.602 11.9283 19.3202 11.7218 19.1239ZM11.1807 20.1437C11.0249 20.1437 10.8989 20.0177 10.8989 19.8619C10.8989 19.7061 11.0249 19.5801 11.1807 19.5801C11.3365 19.5801 11.4625 19.7061 11.4625 19.8619C11.4625 20.0177 11.3365 20.1437 11.1807 20.1437Z" fill="#5D4037"/>
<path fill-rule="evenodd" clip-rule="evenodd" d="M13.6097 22.4516C13.6878 22.4522 13.7649 22.4375 13.838 22.4094C13.9078 22.3824 13.9742 22.3464 14.0355 22.3025C14.0928 22.2564 14.1468 22.2052 14.1963 22.1507C14.243 22.0983 14.2841 22.0415 14.3201 21.9813C14.3544 21.9285 14.3848 21.8728 14.4101 21.8148C14.4298 21.7732 14.4461 21.7299 14.4579 21.6855V21.6602C14.4523 21.6523 14.4472 21.6438 14.4438 21.6348C14.3707 21.7473 14.279 21.8475 14.1733 21.9307C14.0923 22.0072 13.9967 22.0657 13.8915 22.1028C13.7857 22.1394 13.6738 22.1574 13.5618 22.1563C13.4662 22.158 13.3712 22.1445 13.28 22.1169C13.2018 22.0922 13.1287 22.0539 13.0629 22.0044C12.9971 21.9515 12.9375 21.8908 12.8852 21.8238C12.8306 21.7507 12.7839 21.6725 12.7445 21.5898C12.7383 21.596 12.7333 21.6039 12.7305 21.6123C12.7305 21.6123 12.7305 21.6292 12.7305 21.6348C12.7687 21.7428 12.8182 21.8463 12.8767 21.9448C12.9296 22.0393 12.996 22.1259 13.0742 22.2013C13.1439 22.2744 13.226 22.334 13.3166 22.379C13.406 22.4167 13.5017 22.4375 13.5984 22.4409" fill="#5D4037"/>
<path fill-rule="evenodd" clip-rule="evenodd" d="M16.0945 19.107C15.9381 19.0029 15.753 18.9495 15.5646 18.9551C15.3368 18.9472 15.1152 19.0294 14.9475 19.1835C14.7585 19.3708 14.6787 19.6419 14.736 19.9018C14.7619 20.147 14.8598 20.3799 15.0178 20.5695C15.1506 20.7467 15.3598 20.8513 15.5815 20.8513C15.7266 20.849 15.8695 20.8102 15.9955 20.7388C16.2728 20.5408 16.4185 20.2061 16.3757 19.868C16.3622 19.4872 16.2717 19.2307 16.0945 19.107ZM15.4746 20.1752C15.3188 20.1752 15.1928 20.0492 15.1928 19.8934C15.1928 19.7375 15.3188 19.6115 15.4746 19.6115C15.6304 19.6115 15.7564 19.7375 15.7564 19.8934C15.7564 20.0492 15.6298 20.1752 15.4746 20.1752Z" fill="#5D4037"/>
<path fill-rule="evenodd" clip-rule="evenodd" d="M21.6668 5.5974C21.6033 5.49896 21.5408 5.39827 21.4762 5.30603C21.4244 5.23178 21.3715 5.16427 21.3192 5.09396C21.2422 4.99046 21.1645 4.88753 21.0863 4.7919C21.0397 4.73453 20.9924 4.68165 20.9452 4.62709C20.858 4.52696 20.7713 4.42965 20.6836 4.33853C20.6437 4.29746 20.6043 4.25809 20.5643 4.21871C20.4625 4.11746 20.3602 4.02184 20.2572 3.93184C20.233 3.91103 20.2094 3.88965 20.1852 3.8694C18.9022 2.77478 17.6022 2.4969 16.7675 2.31409L16.3057 2.21003C14.6153 1.88603 13.195 1.72234 11.755 1.92821C11.188 2.0514 10.6402 2.25053 10.1266 2.51996C9.41953 2.84115 8.68378 3.17359 7.97391 3.22421C7.23084 3.41603 6.58566 3.87784 6.16491 4.52021L6.08616 4.63271C5.70872 5.4219 5.60972 6.31571 5.80434 7.16846C5.95959 7.67584 6.15084 8.1714 6.33141 8.64784C6.74541 9.61927 7.04522 10.6357 7.22466 11.6769C7.41141 12.047 7.55709 12.4363 7.65834 12.8379C7.89797 13.6721 8.17134 14.6103 8.91216 15.3399H8.93184C8.93803 15.3371 8.94422 15.3348 8.95041 15.332C8.95209 15.3337 8.95322 15.3354 8.95491 15.3371C9.59616 15.0333 10.2149 14.8297 10.8151 14.7048C10.8995 14.6874 10.9827 14.675 11.066 14.661C11.1672 14.6435 11.2685 14.6255 11.3686 14.612C11.5312 14.5912 11.6926 14.576 11.8529 14.5665C11.867 14.5653 11.881 14.5636 11.8951 14.5631C13.9477 14.4506 15.7831 15.2004 17.5763 15.9316L17.8998 16.0655C17.9099 16.061 17.9195 16.0492 17.9296 16.0436C17.9352 16.0458 17.9403 16.0481 17.9459 16.0503C18.3852 15.8585 18.608 14.3825 18.9038 13.0072C19.9687 10.5699 22.3497 8.78059 22.2063 6.52665C22.0325 6.18521 21.8508 5.88315 21.6668 5.5974Z" fill="#CFD8DC"/>
<path fill-rule="evenodd" clip-rule="evenodd" d="M17.9041 16.0667L17.9001 16.0656L17.8984 16.0667H17.9041Z" fill="#CFD8DC"/>
<path fill-rule="evenodd" clip-rule="evenodd" d="M17.7037 14.841C17.6998 14.791 17.679 14.7398 17.6638 14.6892L17.6632 14.6869C17.4736 14.0687 16.4617 13.4202 15.0836 13.0692C15.0076 13.0489 14.93 13.0394 14.8535 13.0219C14.8501 13.0214 14.8468 13.0208 14.8434 13.0197C14.5143 12.9443 14.1819 12.8937 13.8472 12.8639C13.827 12.8622 13.8067 12.8599 13.7865 12.8582C13.5963 12.843 13.4068 12.8335 13.2161 12.8335C13.0485 12.8324 12.8803 12.8352 12.7126 12.8464C12.6378 12.8515 12.5636 12.8588 12.4893 12.8661C12.3144 12.8835 12.1406 12.9072 11.9685 12.9392C11.9083 12.9494 11.8475 12.9527 11.7873 12.9645C10.6522 13.1732 9.65152 13.837 9.01758 14.8017L9.05414 16.2923V16.3148H9.07102C10.0503 15.754 11.1337 15.399 12.2548 15.2725C14.0385 15.1116 15.8643 15.6555 17.6475 16.9009H17.6643V16.8728C17.7841 16.2017 17.7976 15.516 17.7037 14.841Z" fill="#EF5350"/>
<path fill-rule="evenodd" clip-rule="evenodd" d="M7.29882 4.43304C7.107 5.40785 7.97494 8.48473 7.69313 10.0991C7.54688 9.25367 7.00575 7.56335 7.02825 6.6251C6.76894 6.06148 6.50682 5.37129 6.21938 5.10635C5.93194 4.84142 6.81394 3.46385 7.31288 4.43304" fill="#ECEFF1"/>
<path fill-rule="evenodd" clip-rule="evenodd" d="M9.26773 14.3398C8.14048 13.0101 7.66179 10.719 7.26748 8.78908C6.95473 7.25626 6.68698 5.94901 6.17116 5.53783C6.10985 5.45458 6.06879 5.35839 6.05304 5.25601C6.03504 5.06083 6.07498 4.86451 6.16835 4.69239C6.25723 4.50001 6.39391 4.33408 6.56548 4.21033C6.67404 4.13551 6.79835 4.0877 6.92885 4.0697V4.09501C6.79891 4.11301 6.67573 4.16083 6.56829 4.23564C6.45466 4.37795 6.35285 4.52983 6.26398 4.68901C6.01029 5.19639 6.54579 5.17108 6.74604 5.4467C7.26748 5.86633 7.30966 7.24445 7.62523 8.78289C8.01954 10.71 8.14948 12.9955 9.27898 14.3196L9.2621 14.3393" fill="#B0BEC5"/>
<path fill-rule="evenodd" clip-rule="evenodd" d="M9.22597 4.03596C9.03135 5.00796 9.52747 7.24503 9.22597 8.86221C9.07972 8.01678 8.5386 6.32646 8.5611 5.39103C8.29897 4.8274 7.99747 4.17378 7.80341 3.83853C7.60935 3.50328 8.49922 3.13146 9.21247 4.03596" fill="#ECEFF1"/>
<path fill-rule="evenodd" clip-rule="evenodd" d="M8.84772 3.69225C8.69135 3.56119 8.4821 3.51338 8.2841 3.56288C8.20647 3.57131 8.13222 3.59831 8.06697 3.64163C8.0096 3.67931 7.97078 3.74006 7.9601 3.80813C7.9601 3.90938 7.88135 3.92625 7.9601 4.11525C8.59122 4.96069 9.08735 6.38888 9.20547 7.89638C9.37478 9.80944 9.15203 11.9284 10.4199 13.4303L10.4002 13.4471C9.12672 11.9368 8.93772 9.81506 8.77178 7.89919C8.63678 6.3945 8.51528 5.01413 7.88978 4.16588C7.78347 4.04719 7.72947 3.89081 7.74072 3.73219C7.7531 3.65794 7.79472 3.59213 7.85603 3.54881C7.92522 3.50044 8.00566 3.47119 8.09003 3.46444C8.35947 3.44306 8.62778 3.51675 8.84772 3.67313L8.83085 3.69281" fill="#B0BEC5"/>
<path fill-rule="evenodd" clip-rule="evenodd" d="M12.3252 2.32253C12.9113 3.30015 11.8347 7.70115 11.6378 10.4653C11.6209 10.6993 9.55825 1.33928 12.3196 2.32253" fill="#ECEFF1"/>
<path fill-rule="evenodd" clip-rule="evenodd" d="M12.0795 12.9054C11.2498 10.6054 10.7464 8.20012 10.5832 5.76C10.5197 4.95281 10.5844 4.14056 10.775 3.35362C10.9584 2.72812 11.2796 2.31693 11.778 2.24325C11.9602 2.21962 12.1447 2.23312 12.3219 2.28262V2.30793C12.1425 2.27475 11.958 2.28037 11.7808 2.32481C11.364 2.42043 11.4146 2.67975 11.1412 3.26868C10.928 4.02581 10.8589 4.81612 10.9382 5.59856C11.2931 7.92 11.7302 11.0874 12.1076 12.8874H12.0879" fill="#B0BEC5"/>
<path fill-rule="evenodd" clip-rule="evenodd" d="M14.0233 12.7564C13.9952 12.5674 13.9699 12.3761 13.9417 12.1927C13.5081 9.04837 12.9754 5.21662 14.8406 2.46375H14.8631C14.0998 4.50112 13.9952 8.38068 13.9052 9.63168C13.8658 10.1728 13.9277 11.322 13.9699 12.1674C13.9952 12.3621 14.0261 12.5533 14.0514 12.7451H14.0233" fill="#B0BEC5"/>
<path fill-rule="evenodd" clip-rule="evenodd" d="M16.047 13.1592C16.1117 11.5364 16.2838 9.63736 16.4413 7.99148C16.8328 5.91754 17.8869 4.93711 18.1631 2.84067V2.81592C17.2125 4.40611 16.5808 6.16617 16.3035 7.99767C16.0464 9.70542 15.9677 11.4357 16.0695 13.1597H16.0413" fill="#B0BEC5"/>
<path fill-rule="evenodd" clip-rule="evenodd" d="M20.9351 5.30383C20.0896 7.90708 19.0923 10.4518 18.0781 13.027C18.1062 9.61765 19.9321 5.51477 20.9351 5.30383Z" fill="#B0BEC5"/>
<path fill-rule="evenodd" clip-rule="evenodd" d="M17.5823 14.1733C18.0273 13.7115 18.0588 13.001 18.0981 12.1758C18.0886 11.3315 18.2393 10.4928 18.5431 9.70478C18.5431 9.67103 18.5684 9.6176 18.5881 9.54391C18.8361 8.68441 19.825 5.22166 20.9776 5.28353V5.30885C20.0731 5.2751 18.9205 8.69003 18.6477 9.55516C18.628 9.62547 18.6224 9.67047 18.6111 9.70703C18.2871 10.5525 18.2675 11.3973 18.1606 12.1697C18.124 12.9982 18.0537 13.7137 17.597 14.1812H17.5801" fill="#B0BEC5"/>
</svg>
