<svg width="1277" height="177" viewBox="0 0 1277 177" fill="none" xmlns="http://www.w3.org/2000/svg">
<path d="M1 129.5C1 129.5 191 37.5001 299.5 36.5001C408 35.5001 532 157.501 597 155.001C662 152.501 828 15.5 916.5 16C1005 16.5 1244 112.501 1244 112.501" stroke="white"/>
<path d="M195.637 69.13C195.178 69.13 194.745 69.065 194.337 68.935C193.93 68.805 193.557 68.61 193.219 68.35C192.881 68.09 192.582 67.7693 192.322 67.388L193.024 66.608C193.432 67.1887 193.848 67.596 194.272 67.83C194.706 68.064 195.191 68.181 195.728 68.181C196.118 68.181 196.474 68.116 196.794 67.986C197.115 67.856 197.366 67.674 197.548 67.44C197.73 67.206 197.821 66.9373 197.821 66.634C197.821 66.4347 197.787 66.257 197.717 66.101C197.657 65.945 197.561 65.8063 197.431 65.685C197.301 65.5637 197.141 65.4553 196.95 65.36C196.76 65.2647 196.539 65.178 196.287 65.1C196.045 65.022 195.772 64.944 195.468 64.866C195.026 64.762 194.636 64.6407 194.298 64.502C193.969 64.3547 193.687 64.177 193.453 63.969C193.228 63.761 193.055 63.5227 192.933 63.254C192.821 62.9767 192.764 62.6517 192.764 62.279C192.764 61.9237 192.838 61.5943 192.985 61.291C193.141 60.9877 193.354 60.7277 193.622 60.511C193.891 60.2857 194.207 60.1123 194.571 59.991C194.935 59.8697 195.325 59.809 195.741 59.809C196.209 59.809 196.625 59.874 196.989 60.004C197.362 60.1253 197.691 60.3073 197.977 60.55C198.263 60.7927 198.51 61.083 198.718 61.421L198.003 62.123C197.821 61.837 197.613 61.59 197.379 61.382C197.154 61.174 196.903 61.018 196.625 60.914C196.357 60.8013 196.058 60.745 195.728 60.745C195.347 60.745 195.009 60.81 194.714 60.94C194.428 61.07 194.203 61.252 194.038 61.486C193.874 61.7113 193.791 61.9713 193.791 62.266C193.791 62.4827 193.83 62.6777 193.908 62.851C193.986 63.0157 194.108 63.163 194.272 63.293C194.446 63.4143 194.667 63.527 194.935 63.631C195.213 63.7263 195.542 63.8173 195.923 63.904C196.374 64.008 196.777 64.1337 197.132 64.281C197.496 64.4283 197.804 64.606 198.055 64.814C198.315 65.0133 198.51 65.2473 198.64 65.516C198.779 65.7847 198.848 66.0923 198.848 66.439C198.848 66.9763 198.714 67.4487 198.445 67.856C198.177 68.2547 197.8 68.5667 197.314 68.792C196.838 69.0173 196.279 69.13 195.637 69.13ZM201.441 69V60.433H202.416V69H201.441ZM199.907 63.15V62.214H204.132V63.15H199.907ZM205.329 69V62.214H206.304L206.33 64.021L206.226 63.774C206.321 63.4707 206.473 63.189 206.681 62.929C206.898 62.669 207.153 62.461 207.448 62.305C207.743 62.149 208.068 62.071 208.423 62.071C208.57 62.071 208.709 62.084 208.839 62.11C208.969 62.1273 209.077 62.1533 209.164 62.188L208.891 63.28C208.778 63.228 208.661 63.1933 208.54 63.176C208.427 63.15 208.319 63.137 208.215 63.137C207.92 63.137 207.656 63.189 207.422 63.293C207.188 63.397 206.989 63.5443 206.824 63.735C206.659 63.917 206.534 64.1293 206.447 64.372C206.36 64.6147 206.317 64.8747 206.317 65.152V69H205.329ZM210.438 69V62.214H211.413V69H210.438ZM210.919 60.745C210.677 60.745 210.49 60.6843 210.36 60.563C210.239 60.433 210.178 60.2597 210.178 60.043C210.178 59.8263 210.243 59.653 210.373 59.523C210.503 59.393 210.685 59.328 210.919 59.328C211.153 59.328 211.335 59.393 211.465 59.523C211.595 59.6443 211.66 59.8177 211.66 60.043C211.66 60.251 211.595 60.42 211.465 60.55C211.335 60.68 211.153 60.745 210.919 60.745ZM213.543 69V62.214H214.505L214.544 63.631L214.388 63.696C214.474 63.4013 214.643 63.1327 214.895 62.89C215.146 62.6473 215.445 62.4523 215.792 62.305C216.147 62.149 216.511 62.071 216.884 62.071C217.386 62.071 217.807 62.1707 218.145 62.37C218.483 62.5693 218.738 62.877 218.912 63.293C219.085 63.709 219.172 64.2377 219.172 64.879V69H218.184V64.931C218.184 64.4803 218.123 64.112 218.002 63.826C217.889 63.5313 217.711 63.3147 217.469 63.176C217.226 63.0373 216.927 62.9723 216.572 62.981C216.277 62.981 216.004 63.033 215.753 63.137C215.501 63.2323 215.285 63.3667 215.103 63.54C214.921 63.7133 214.778 63.9127 214.674 64.138C214.57 64.3633 214.518 64.606 214.518 64.866V69H214.037C213.976 69 213.907 69 213.829 69C213.751 69 213.655 69 213.543 69ZM223.958 71.99C223.455 71.99 222.979 71.912 222.528 71.756C222.077 71.6 221.705 71.405 221.41 71.171L221.8 70.352C221.973 70.4907 222.173 70.612 222.398 70.716C222.632 70.8287 222.883 70.9153 223.152 70.976C223.421 71.0453 223.694 71.08 223.971 71.08C224.474 71.08 224.898 70.9847 225.245 70.794C225.6 70.612 225.869 70.339 226.051 69.975C226.242 69.611 226.337 69.1603 226.337 68.623V67.323L226.493 67.284C226.415 67.6133 226.246 67.921 225.986 68.207C225.726 68.4843 225.41 68.7097 225.037 68.883C224.664 69.0477 224.27 69.13 223.854 69.13C223.221 69.13 222.654 68.9783 222.151 68.675C221.657 68.3717 221.267 67.9557 220.981 67.427C220.695 66.8897 220.552 66.283 220.552 65.607C220.552 64.9223 220.695 64.3157 220.981 63.787C221.276 63.2497 221.67 62.8293 222.164 62.526C222.658 62.2227 223.213 62.071 223.828 62.071C224.097 62.071 224.357 62.1057 224.608 62.175C224.859 62.2357 225.089 62.3267 225.297 62.448C225.514 62.5693 225.709 62.708 225.882 62.864C226.055 63.02 226.198 63.189 226.311 63.371C226.432 63.553 226.519 63.7393 226.571 63.93L226.298 63.891L226.337 62.214H227.312V68.584C227.312 69.13 227.234 69.611 227.078 70.027C226.922 70.4517 226.692 70.807 226.389 71.093C226.094 71.3877 225.739 71.6087 225.323 71.756C224.916 71.912 224.461 71.99 223.958 71.99ZM223.971 68.194C224.43 68.194 224.838 68.0857 225.193 67.869C225.557 67.6437 225.843 67.336 226.051 66.946C226.259 66.556 226.363 66.1053 226.363 65.594C226.363 65.0913 226.259 64.645 226.051 64.255C225.852 63.865 225.57 63.5573 225.206 63.332C224.842 63.1067 224.43 62.994 223.971 62.994C223.503 62.994 223.087 63.1067 222.723 63.332C222.368 63.5573 222.086 63.865 221.878 64.255C221.67 64.645 221.566 65.0913 221.566 65.594C221.566 66.088 221.666 66.5343 221.865 66.933C222.073 67.323 222.355 67.6307 222.71 67.856C223.074 68.0813 223.494 68.194 223.971 68.194ZM231.305 69.13C230.724 69.13 230.204 69.0217 229.745 68.805C229.285 68.5883 228.921 68.3023 228.653 67.947L229.342 67.349C229.593 67.6523 229.888 67.882 230.226 68.038C230.572 68.194 230.958 68.272 231.383 68.272C231.599 68.272 231.794 68.2503 231.968 68.207C232.141 68.155 232.293 68.0813 232.423 67.986C232.553 67.8907 232.652 67.778 232.722 67.648C232.791 67.518 232.826 67.375 232.826 67.219C232.826 66.933 232.7 66.6947 232.449 66.504C232.336 66.426 232.176 66.348 231.968 66.27C231.76 66.1833 231.508 66.101 231.214 66.023C230.728 65.8843 230.325 65.7457 230.005 65.607C229.684 65.4597 229.433 65.2907 229.251 65.1C229.121 64.944 229.021 64.775 228.952 64.593C228.891 64.411 228.861 64.2117 228.861 63.995C228.861 63.7177 228.917 63.462 229.03 63.228C229.151 62.994 229.316 62.7903 229.524 62.617C229.74 62.435 229.992 62.3007 230.278 62.214C230.572 62.1187 230.889 62.071 231.227 62.071C231.547 62.071 231.864 62.1143 232.176 62.201C232.488 62.2877 232.778 62.4133 233.047 62.578C233.315 62.7427 233.545 62.9377 233.736 63.163L233.138 63.813C232.973 63.6397 232.791 63.4837 232.592 63.345C232.392 63.2063 232.18 63.098 231.955 63.02C231.738 62.942 231.513 62.903 231.279 62.903C231.071 62.903 230.876 62.929 230.694 62.981C230.52 63.033 230.369 63.1067 230.239 63.202C230.117 63.2887 230.022 63.397 229.953 63.527C229.892 63.657 229.862 63.8 229.862 63.956C229.862 64.086 229.888 64.203 229.94 64.307C229.992 64.411 230.065 64.502 230.161 64.58C230.282 64.6753 230.451 64.7663 230.668 64.853C230.893 64.931 231.17 65.0133 231.5 65.1C231.881 65.204 232.202 65.3123 232.462 65.425C232.73 65.529 232.951 65.6547 233.125 65.802C233.359 65.9753 233.523 66.1747 233.619 66.4C233.723 66.6253 233.775 66.881 233.775 67.167C233.775 67.5483 233.666 67.8863 233.45 68.181C233.242 68.4757 232.951 68.7097 232.579 68.883C232.206 69.0477 231.781 69.13 231.305 69.13Z" fill="white"/>
<path d="M563.305 174V164.9H564.319V173.012H568.687V174H563.305ZM570.539 174V167.214H571.514V174H570.539ZM571.02 165.745C570.777 165.745 570.591 165.684 570.461 165.563C570.339 165.433 570.279 165.26 570.279 165.043C570.279 164.826 570.344 164.653 570.474 164.523C570.604 164.393 570.786 164.328 571.02 164.328C571.254 164.328 571.436 164.393 571.566 164.523C571.696 164.644 571.761 164.818 571.761 165.043C571.761 165.251 571.696 165.42 571.566 165.55C571.436 165.68 571.254 165.745 571.02 165.745ZM573.643 174V167.214H574.605L574.644 168.631L574.488 168.696C574.575 168.401 574.744 168.133 574.995 167.89C575.246 167.647 575.545 167.452 575.892 167.305C576.247 167.149 576.611 167.071 576.984 167.071C577.487 167.071 577.907 167.171 578.245 167.37C578.583 167.569 578.839 167.877 579.012 168.293C579.185 168.709 579.272 169.238 579.272 169.879V174H578.284V169.931C578.284 169.48 578.223 169.112 578.102 168.826C577.989 168.531 577.812 168.315 577.569 168.176C577.326 168.037 577.027 167.972 576.672 167.981C576.377 167.981 576.104 168.033 575.853 168.137C575.602 168.232 575.385 168.367 575.203 168.54C575.021 168.713 574.878 168.913 574.774 169.138C574.67 169.363 574.618 169.606 574.618 169.866V174H574.137C574.076 174 574.007 174 573.929 174C573.851 174 573.756 174 573.643 174ZM582.004 171.816L581.965 170.685L585.514 167.214H586.827L582.004 171.816ZM581.133 174V164.38H582.108V174H581.133ZM585.787 174L582.927 170.685L583.616 170.009L587.061 174H585.787ZM590.826 174.13C590.15 174.13 589.548 173.983 589.019 173.688C588.499 173.393 588.092 172.982 587.797 172.453C587.503 171.924 587.355 171.318 587.355 170.633C587.355 170.104 587.438 169.628 587.602 169.203C587.767 168.77 587.997 168.393 588.291 168.072C588.595 167.751 588.954 167.504 589.37 167.331C589.786 167.149 590.237 167.058 590.722 167.058C591.182 167.058 591.598 167.14 591.97 167.305C592.352 167.47 592.677 167.699 592.945 167.994C593.223 168.28 593.431 168.622 593.569 169.021C593.708 169.42 593.769 169.857 593.751 170.334L593.738 170.789H588.083L587.94 169.97H592.997L592.763 170.191V169.879C592.746 169.567 592.655 169.268 592.49 168.982C592.326 168.687 592.092 168.449 591.788 168.267C591.494 168.085 591.138 167.994 590.722 167.994C590.237 167.994 589.817 168.094 589.461 168.293C589.106 168.484 588.833 168.77 588.642 169.151C588.452 169.532 588.356 170.005 588.356 170.568C588.356 171.105 588.46 171.573 588.668 171.972C588.876 172.362 589.171 172.665 589.552 172.882C589.942 173.099 590.41 173.207 590.956 173.207C591.277 173.207 591.593 173.155 591.905 173.051C592.226 172.938 592.577 172.722 592.958 172.401L593.465 173.103C593.266 173.302 593.028 173.48 592.75 173.636C592.473 173.783 592.17 173.905 591.84 174C591.511 174.087 591.173 174.13 590.826 174.13ZM597.892 174.13C597.277 174.13 596.722 173.978 596.228 173.675C595.743 173.372 595.357 172.956 595.071 172.427C594.794 171.89 594.655 171.283 594.655 170.607C594.655 169.922 594.798 169.316 595.084 168.787C595.37 168.25 595.756 167.829 596.241 167.526C596.726 167.223 597.272 167.071 597.879 167.071C598.217 167.071 598.542 167.123 598.854 167.227C599.175 167.331 599.461 167.478 599.712 167.669C599.963 167.851 600.171 168.063 600.336 168.306C600.501 168.54 600.6 168.787 600.635 169.047L600.336 168.943V164.38H601.311V174H600.349L600.323 172.31L600.57 172.219C600.535 172.462 600.436 172.7 600.271 172.934C600.115 173.159 599.916 173.363 599.673 173.545C599.43 173.727 599.153 173.87 598.841 173.974C598.538 174.078 598.221 174.13 597.892 174.13ZM598.035 173.233C598.486 173.233 598.889 173.12 599.244 172.895C599.599 172.67 599.877 172.358 600.076 171.959C600.284 171.56 600.388 171.105 600.388 170.594C600.388 170.083 600.284 169.632 600.076 169.242C599.877 168.843 599.599 168.531 599.244 168.306C598.889 168.072 598.486 167.955 598.035 167.955C597.567 167.955 597.155 168.072 596.8 168.306C596.453 168.531 596.176 168.843 595.968 169.242C595.769 169.632 595.669 170.083 595.669 170.594C595.669 171.097 595.769 171.547 595.968 171.946C596.167 172.345 596.445 172.661 596.8 172.895C597.155 173.12 597.567 173.233 598.035 173.233ZM603.6 174V164.9H604.614V173.012H608.982V174H603.6ZM610.834 174V167.214H611.809V174H610.834ZM611.315 165.745C611.072 165.745 610.886 165.684 610.756 165.563C610.634 165.433 610.574 165.26 610.574 165.043C610.574 164.826 610.639 164.653 610.769 164.523C610.899 164.393 611.081 164.328 611.315 164.328C611.549 164.328 611.731 164.393 611.861 164.523C611.991 164.644 612.056 164.818 612.056 165.043C612.056 165.251 611.991 165.42 611.861 165.55C611.731 165.68 611.549 165.745 611.315 165.745ZM616.161 174.13C615.58 174.13 615.06 174.022 614.601 173.805C614.141 173.588 613.777 173.302 613.509 172.947L614.198 172.349C614.449 172.652 614.744 172.882 615.082 173.038C615.428 173.194 615.814 173.272 616.239 173.272C616.455 173.272 616.65 173.25 616.824 173.207C616.997 173.155 617.149 173.081 617.279 172.986C617.409 172.891 617.508 172.778 617.578 172.648C617.647 172.518 617.682 172.375 617.682 172.219C617.682 171.933 617.556 171.695 617.305 171.504C617.192 171.426 617.032 171.348 616.824 171.27C616.616 171.183 616.364 171.101 616.07 171.023C615.584 170.884 615.181 170.746 614.861 170.607C614.54 170.46 614.289 170.291 614.107 170.1C613.977 169.944 613.877 169.775 613.808 169.593C613.747 169.411 613.717 169.212 613.717 168.995C613.717 168.718 613.773 168.462 613.886 168.228C614.007 167.994 614.172 167.79 614.38 167.617C614.596 167.435 614.848 167.301 615.134 167.214C615.428 167.119 615.745 167.071 616.083 167.071C616.403 167.071 616.72 167.114 617.032 167.201C617.344 167.288 617.634 167.413 617.903 167.578C618.171 167.743 618.401 167.938 618.592 168.163L617.994 168.813C617.829 168.64 617.647 168.484 617.448 168.345C617.248 168.206 617.036 168.098 616.811 168.02C616.594 167.942 616.369 167.903 616.135 167.903C615.927 167.903 615.732 167.929 615.55 167.981C615.376 168.033 615.225 168.107 615.095 168.202C614.973 168.289 614.878 168.397 614.809 168.527C614.748 168.657 614.718 168.8 614.718 168.956C614.718 169.086 614.744 169.203 614.796 169.307C614.848 169.411 614.921 169.502 615.017 169.58C615.138 169.675 615.307 169.766 615.524 169.853C615.749 169.931 616.026 170.013 616.356 170.1C616.737 170.204 617.058 170.312 617.318 170.425C617.586 170.529 617.807 170.655 617.981 170.802C618.215 170.975 618.379 171.175 618.475 171.4C618.579 171.625 618.631 171.881 618.631 172.167C618.631 172.548 618.522 172.886 618.306 173.181C618.098 173.476 617.807 173.71 617.435 173.883C617.062 174.048 616.637 174.13 616.161 174.13ZM621.094 174V165.433H622.069V174H621.094ZM619.56 168.15V167.214H623.785V168.15H619.56Z" fill="white"/>
<path d="M375.179 76L378.663 66.9H379.82L383.278 76H382.173L379.95 70.098C379.889 69.9333 379.82 69.7427 379.742 69.526C379.673 69.3007 379.595 69.071 379.508 68.837C379.43 68.5943 379.352 68.3603 379.274 68.135C379.205 67.9097 379.14 67.7103 379.079 67.537H379.339C379.27 67.7537 379.196 67.9747 379.118 68.2C379.049 68.4167 378.975 68.6377 378.897 68.863C378.819 69.0797 378.741 69.2963 378.663 69.513C378.585 69.7297 378.507 69.9463 378.429 70.163L376.219 76H375.179ZM376.661 73.491L377.038 72.503H381.341L381.757 73.491H376.661ZM384.55 76V69.214H385.525L385.551 71.021L385.447 70.774C385.542 70.4707 385.694 70.189 385.902 69.929C386.119 69.669 386.374 69.461 386.669 69.305C386.964 69.149 387.289 69.071 387.644 69.071C387.791 69.071 387.93 69.084 388.06 69.11C388.19 69.1273 388.298 69.1533 388.385 69.188L388.112 70.28C387.999 70.228 387.882 70.1933 387.761 70.176C387.648 70.15 387.54 70.137 387.436 70.137C387.141 70.137 386.877 70.189 386.643 70.293C386.409 70.397 386.21 70.5443 386.045 70.735C385.88 70.917 385.755 71.1293 385.668 71.372C385.581 71.6147 385.538 71.8747 385.538 72.152V76H384.55ZM389.4 76V69.214H390.375L390.401 71.021L390.297 70.774C390.392 70.4707 390.544 70.189 390.752 69.929C390.968 69.669 391.224 69.461 391.519 69.305C391.813 69.149 392.138 69.071 392.494 69.071C392.641 69.071 392.78 69.084 392.91 69.11C393.04 69.1273 393.148 69.1533 393.235 69.188L392.962 70.28C392.849 70.228 392.732 70.1933 392.611 70.176C392.498 70.15 392.39 70.137 392.286 70.137C391.991 70.137 391.727 70.189 391.493 70.293C391.259 70.397 391.059 70.5443 390.895 70.735C390.73 70.917 390.604 71.1293 390.518 71.372C390.431 71.6147 390.388 71.8747 390.388 72.152V76H389.4ZM396.609 76.13C396.02 76.13 395.487 75.9783 395.01 75.675C394.534 75.363 394.157 74.9427 393.879 74.414C393.602 73.8767 393.463 73.27 393.463 72.594C393.463 71.9093 393.606 71.3027 393.892 70.774C394.178 70.2453 394.56 69.8293 395.036 69.526C395.522 69.2227 396.063 69.071 396.661 69.071C397.017 69.071 397.346 69.123 397.649 69.227C397.953 69.331 398.221 69.4783 398.455 69.669C398.698 69.851 398.897 70.0677 399.053 70.319C399.218 70.5617 399.331 70.826 399.391 71.112L399.105 70.969L399.144 69.214H400.119V76H399.131V74.336L399.391 74.167C399.331 74.427 399.214 74.6783 399.04 74.921C398.867 75.155 398.655 75.363 398.403 75.545C398.161 75.727 397.883 75.87 397.571 75.974C397.268 76.078 396.947 76.13 396.609 76.13ZM396.83 75.194C397.281 75.194 397.684 75.0857 398.039 74.869C398.395 74.6437 398.672 74.336 398.871 73.946C399.079 73.5473 399.183 73.0967 399.183 72.594C399.183 72.0913 399.079 71.645 398.871 71.255C398.672 70.865 398.395 70.5573 398.039 70.332C397.684 70.1067 397.281 69.994 396.83 69.994C396.371 69.994 395.964 70.1067 395.608 70.332C395.262 70.5573 394.984 70.865 394.776 71.255C394.577 71.645 394.477 72.0913 394.477 72.594C394.477 73.088 394.577 73.5343 394.776 73.933C394.976 74.323 395.253 74.6307 395.608 74.856C395.964 75.0813 396.371 75.194 396.83 75.194ZM403.01 78.99L404.323 75.792L404.414 76.715L401.008 69.214H402.113L404.44 74.414C404.51 74.5527 404.579 74.7173 404.648 74.908C404.718 75.09 404.783 75.272 404.843 75.454L404.479 75.415C404.54 75.2677 404.596 75.116 404.648 74.96C404.709 74.804 404.765 74.6523 404.817 74.505L406.858 69.214H407.976L405.233 76L404.063 78.99H403.01ZM411.097 76.13C410.517 76.13 409.997 76.0217 409.537 75.805C409.078 75.5883 408.714 75.3023 408.445 74.947L409.134 74.349C409.386 74.6523 409.68 74.882 410.018 75.038C410.365 75.194 410.751 75.272 411.175 75.272C411.392 75.272 411.587 75.2503 411.76 75.207C411.934 75.155 412.085 75.0813 412.215 74.986C412.345 74.8907 412.445 74.778 412.514 74.648C412.584 74.518 412.618 74.375 412.618 74.219C412.618 73.933 412.493 73.6947 412.241 73.504C412.129 73.426 411.968 73.348 411.76 73.27C411.552 73.1833 411.301 73.101 411.006 73.023C410.521 72.8843 410.118 72.7457 409.797 72.607C409.477 72.4597 409.225 72.2907 409.043 72.1C408.913 71.944 408.814 71.775 408.744 71.593C408.684 71.411 408.653 71.2117 408.653 70.995C408.653 70.7177 408.71 70.462 408.822 70.228C408.944 69.994 409.108 69.7903 409.316 69.617C409.533 69.435 409.784 69.3007 410.07 69.214C410.365 69.1187 410.681 69.071 411.019 69.071C411.34 69.071 411.656 69.1143 411.968 69.201C412.28 69.2877 412.571 69.4133 412.839 69.578C413.108 69.7427 413.338 69.9377 413.528 70.163L412.93 70.813C412.766 70.6397 412.584 70.4837 412.384 70.345C412.185 70.2063 411.973 70.098 411.747 70.02C411.531 69.942 411.305 69.903 411.071 69.903C410.863 69.903 410.668 69.929 410.486 69.981C410.313 70.033 410.161 70.1067 410.031 70.202C409.91 70.2887 409.815 70.397 409.745 70.527C409.685 70.657 409.654 70.8 409.654 70.956C409.654 71.086 409.68 71.203 409.732 71.307C409.784 71.411 409.858 71.502 409.953 71.58C410.075 71.6753 410.244 71.7663 410.46 71.853C410.686 71.931 410.963 72.0133 411.292 72.1C411.674 72.204 411.994 72.3123 412.254 72.425C412.523 72.529 412.744 72.6547 412.917 72.802C413.151 72.9753 413.316 73.1747 413.411 73.4C413.515 73.6253 413.567 73.881 413.567 74.167C413.567 74.5483 413.459 74.8863 413.242 75.181C413.034 75.4757 412.744 75.7097 412.371 75.883C411.999 76.0477 411.574 76.13 411.097 76.13Z" fill="white"/>
<path d="M783.597 77V68.888H780.997V67.9H787.315V68.888H784.611V77H783.597ZM787.866 77V70.214H788.841L788.867 72.021L788.763 71.774C788.858 71.4707 789.01 71.189 789.218 70.929C789.434 70.669 789.69 70.461 789.985 70.305C790.279 70.149 790.604 70.071 790.96 70.071C791.107 70.071 791.246 70.084 791.376 70.11C791.506 70.1273 791.614 70.1533 791.701 70.188L791.428 71.28C791.315 71.228 791.198 71.1933 791.077 71.176C790.964 71.15 790.856 71.137 790.752 71.137C790.457 71.137 790.193 71.189 789.959 71.293C789.725 71.397 789.525 71.5443 789.361 71.735C789.196 71.917 789.07 72.1293 788.984 72.372C788.897 72.6147 788.854 72.8747 788.854 73.152V77H787.866ZM795.413 77.13C794.737 77.13 794.135 76.9827 793.606 76.688C793.086 76.3933 792.679 75.9817 792.384 75.453C792.089 74.9243 791.942 74.3177 791.942 73.633C791.942 73.1043 792.024 72.6277 792.189 72.203C792.354 71.7697 792.583 71.3927 792.878 71.072C793.181 70.7513 793.541 70.5043 793.957 70.331C794.373 70.149 794.824 70.058 795.309 70.058C795.768 70.058 796.184 70.1403 796.557 70.305C796.938 70.4697 797.263 70.6993 797.532 70.994C797.809 71.28 798.017 71.6223 798.156 72.021C798.295 72.4197 798.355 72.8573 798.338 73.334L798.325 73.789H792.67L792.527 72.97H797.584L797.35 73.191V72.879C797.333 72.567 797.242 72.268 797.077 71.982C796.912 71.6873 796.678 71.449 796.375 71.267C796.08 71.085 795.725 70.994 795.309 70.994C794.824 70.994 794.403 71.0937 794.048 71.293C793.693 71.4837 793.42 71.7697 793.229 72.151C793.038 72.5323 792.943 73.0047 792.943 73.568C792.943 74.1053 793.047 74.5733 793.255 74.972C793.463 75.362 793.758 75.6653 794.139 75.882C794.529 76.0987 794.997 76.207 795.543 76.207C795.864 76.207 796.18 76.155 796.492 76.051C796.813 75.9383 797.164 75.7217 797.545 75.401L798.052 76.103C797.853 76.3023 797.614 76.48 797.337 76.636C797.06 76.7833 796.756 76.9047 796.427 77C796.098 77.0867 795.76 77.13 795.413 77.13ZM802.713 77.13C802.037 77.13 801.435 76.9827 800.906 76.688C800.386 76.3933 799.979 75.9817 799.684 75.453C799.389 74.9243 799.242 74.3177 799.242 73.633C799.242 73.1043 799.324 72.6277 799.489 72.203C799.654 71.7697 799.883 71.3927 800.178 71.072C800.481 70.7513 800.841 70.5043 801.257 70.331C801.673 70.149 802.124 70.058 802.609 70.058C803.068 70.058 803.484 70.1403 803.857 70.305C804.238 70.4697 804.563 70.6993 804.832 70.994C805.109 71.28 805.317 71.6223 805.456 72.021C805.595 72.4197 805.655 72.8573 805.638 73.334L805.625 73.789H799.97L799.827 72.97H804.884L804.65 73.191V72.879C804.633 72.567 804.542 72.268 804.377 71.982C804.212 71.6873 803.978 71.449 803.675 71.267C803.38 71.085 803.025 70.994 802.609 70.994C802.124 70.994 801.703 71.0937 801.348 71.293C800.993 71.4837 800.72 71.7697 800.529 72.151C800.338 72.5323 800.243 73.0047 800.243 73.568C800.243 74.1053 800.347 74.5733 800.555 74.972C800.763 75.362 801.058 75.6653 801.439 75.882C801.829 76.0987 802.297 76.207 802.843 76.207C803.164 76.207 803.48 76.155 803.792 76.051C804.113 75.9383 804.464 75.7217 804.845 75.401L805.352 76.103C805.153 76.3023 804.914 76.48 804.637 76.636C804.36 76.7833 804.056 76.9047 803.727 77C803.398 77.0867 803.06 77.13 802.713 77.13ZM809.246 77.13C808.665 77.13 808.145 77.0217 807.686 76.805C807.226 76.5883 806.862 76.3023 806.594 75.947L807.283 75.349C807.534 75.6523 807.829 75.882 808.167 76.038C808.513 76.194 808.899 76.272 809.324 76.272C809.54 76.272 809.735 76.2503 809.909 76.207C810.082 76.155 810.234 76.0813 810.364 75.986C810.494 75.8907 810.593 75.778 810.663 75.648C810.732 75.518 810.767 75.375 810.767 75.219C810.767 74.933 810.641 74.6947 810.39 74.504C810.277 74.426 810.117 74.348 809.909 74.27C809.701 74.1833 809.449 74.101 809.155 74.023C808.669 73.8843 808.266 73.7457 807.946 73.607C807.625 73.4597 807.374 73.2907 807.192 73.1C807.062 72.944 806.962 72.775 806.893 72.593C806.832 72.411 806.802 72.2117 806.802 71.995C806.802 71.7177 806.858 71.462 806.971 71.228C807.092 70.994 807.257 70.7903 807.465 70.617C807.681 70.435 807.933 70.3007 808.219 70.214C808.513 70.1187 808.83 70.071 809.168 70.071C809.488 70.071 809.805 70.1143 810.117 70.201C810.429 70.2877 810.719 70.4133 810.988 70.578C811.256 70.7427 811.486 70.9377 811.677 71.163L811.079 71.813C810.914 71.6397 810.732 71.4837 810.533 71.345C810.333 71.2063 810.121 71.098 809.896 71.02C809.679 70.942 809.454 70.903 809.22 70.903C809.012 70.903 808.817 70.929 808.635 70.981C808.461 71.033 808.31 71.1067 808.18 71.202C808.058 71.2887 807.963 71.397 807.894 71.527C807.833 71.657 807.803 71.8 807.803 71.956C807.803 72.086 807.829 72.203 807.881 72.307C807.933 72.411 808.006 72.502 808.102 72.58C808.223 72.6753 808.392 72.7663 808.609 72.853C808.834 72.931 809.111 73.0133 809.441 73.1C809.822 73.204 810.143 73.3123 810.403 73.425C810.671 73.529 810.892 73.6547 811.066 73.802C811.3 73.9753 811.464 74.1747 811.56 74.4C811.664 74.6253 811.716 74.881 811.716 75.167C811.716 75.5483 811.607 75.8863 811.391 76.181C811.183 76.4757 810.892 76.7097 810.52 76.883C810.147 77.0477 809.722 77.13 809.246 77.13ZM812.775 78.547L818.053 67.9H819.028L813.776 78.547H812.775ZM824.417 77.13C823.75 77.13 823.13 77.013 822.558 76.779C821.986 76.545 821.484 76.22 821.05 75.804C820.617 75.388 820.279 74.8983 820.036 74.335C819.802 73.763 819.685 73.1433 819.685 72.476C819.685 71.8087 819.802 71.1933 820.036 70.63C820.279 70.058 820.608 69.564 821.024 69.148C821.449 68.732 821.943 68.4113 822.506 68.186C823.078 67.952 823.689 67.835 824.339 67.835C824.799 67.835 825.249 67.9 825.691 68.03C826.142 68.16 826.549 68.342 826.913 68.576C827.277 68.81 827.572 69.0743 827.797 69.369L827.121 70.058C826.879 69.8067 826.606 69.59 826.302 69.408C825.999 69.226 825.678 69.083 825.34 68.979C825.011 68.875 824.682 68.823 824.352 68.823C823.841 68.823 823.364 68.914 822.922 69.096C822.489 69.278 822.108 69.5337 821.778 69.863C821.449 70.1837 821.193 70.5693 821.011 71.02C820.829 71.462 820.738 71.9473 820.738 72.476C820.738 72.9873 820.829 73.4683 821.011 73.919C821.202 74.361 821.466 74.751 821.804 75.089C822.151 75.4183 822.55 75.674 823 75.856C823.451 76.038 823.936 76.129 824.456 76.129C824.864 76.129 825.245 76.0683 825.6 75.947C825.964 75.8257 826.281 75.6567 826.549 75.44C826.818 75.2147 827.026 74.9547 827.173 74.66C827.321 74.3653 827.394 74.049 827.394 73.711V73.256L827.602 73.516H824.404V72.515H828.408C828.417 72.5843 828.426 72.6667 828.434 72.762C828.443 72.8487 828.447 72.9397 828.447 73.035C828.456 73.1217 828.46 73.204 828.46 73.282C828.46 73.8453 828.356 74.3653 828.148 74.842C827.94 75.31 827.65 75.7173 827.277 76.064C826.913 76.402 826.489 76.6663 826.003 76.857C825.518 77.039 824.989 77.13 824.417 77.13ZM829.925 77V70.214H830.9L830.926 72.021L830.822 71.774C830.917 71.4707 831.069 71.189 831.277 70.929C831.494 70.669 831.749 70.461 832.044 70.305C832.339 70.149 832.664 70.071 833.019 70.071C833.166 70.071 833.305 70.084 833.435 70.11C833.565 70.1273 833.673 70.1533 833.76 70.188L833.487 71.28C833.374 71.228 833.257 71.1933 833.136 71.176C833.023 71.15 832.915 71.137 832.811 71.137C832.516 71.137 832.252 71.189 832.018 71.293C831.784 71.397 831.585 71.5443 831.42 71.735C831.255 71.917 831.13 72.1293 831.043 72.372C830.956 72.6147 830.913 72.8747 830.913 73.152V77H829.925ZM837.135 77.13C836.545 77.13 836.012 76.9783 835.536 76.675C835.059 76.363 834.682 75.9427 834.405 75.414C834.127 74.8767 833.989 74.27 833.989 73.594C833.989 72.9093 834.132 72.3027 834.418 71.774C834.704 71.2453 835.085 70.8293 835.562 70.526C836.047 70.2227 836.589 70.071 837.187 70.071C837.542 70.071 837.871 70.123 838.175 70.227C838.478 70.331 838.747 70.4783 838.981 70.669C839.223 70.851 839.423 71.0677 839.579 71.319C839.743 71.5617 839.856 71.826 839.917 72.112L839.631 71.969L839.67 70.214H840.645V77H839.657V75.336L839.917 75.167C839.856 75.427 839.739 75.6783 839.566 75.921C839.392 76.155 839.18 76.363 838.929 76.545C838.686 76.727 838.409 76.87 838.097 76.974C837.793 77.078 837.473 77.13 837.135 77.13ZM837.356 76.194C837.806 76.194 838.209 76.0857 838.565 75.869C838.92 75.6437 839.197 75.336 839.397 74.946C839.605 74.5473 839.709 74.0967 839.709 73.594C839.709 73.0913 839.605 72.645 839.397 72.255C839.197 71.865 838.92 71.5573 838.565 71.332C838.209 71.1067 837.806 70.994 837.356 70.994C836.896 70.994 836.489 71.1067 836.134 71.332C835.787 71.5573 835.51 71.865 835.302 72.255C835.102 72.645 835.003 73.0913 835.003 73.594C835.003 74.088 835.102 74.5343 835.302 74.933C835.501 75.323 835.778 75.6307 836.134 75.856C836.489 76.0813 836.896 76.194 837.356 76.194ZM842.544 79.86V70.214H843.519L843.545 71.865L843.363 71.891C843.441 71.5617 843.61 71.2627 843.87 70.994C844.13 70.7167 844.447 70.4957 844.819 70.331C845.192 70.1663 845.586 70.084 846.002 70.084C846.609 70.084 847.151 70.2357 847.627 70.539C848.113 70.8423 848.498 71.2583 848.784 71.787C849.07 72.3157 849.213 72.9223 849.213 73.607C849.213 74.283 849.075 74.8853 848.797 75.414C848.52 75.9427 848.139 76.363 847.653 76.675C847.168 76.9783 846.622 77.13 846.015 77.13C845.591 77.13 845.188 77.0433 844.806 76.87C844.425 76.6967 844.1 76.4713 843.831 76.194C843.563 75.908 843.385 75.6003 843.298 75.271H843.532V79.86H842.544ZM845.859 76.194C846.319 76.194 846.726 76.0813 847.081 75.856C847.437 75.6307 847.718 75.323 847.926 74.933C848.134 74.543 848.238 74.101 848.238 73.607C848.238 73.1043 848.134 72.658 847.926 72.268C847.718 71.878 847.437 71.5703 847.081 71.345C846.726 71.1197 846.319 71.007 845.859 71.007C845.4 71.007 844.988 71.1197 844.624 71.345C844.269 71.5617 843.987 71.865 843.779 72.255C843.571 72.645 843.467 73.0913 843.467 73.594C843.467 74.0967 843.571 74.543 843.779 74.933C843.987 75.323 844.269 75.6307 844.624 75.856C844.988 76.0813 845.4 76.194 845.859 76.194ZM850.631 77V67.38H851.606V71.696L851.411 71.891C851.506 71.5357 851.684 71.2237 851.944 70.955C852.204 70.6777 852.507 70.461 852.854 70.305C853.209 70.149 853.569 70.071 853.933 70.071C854.453 70.071 854.886 70.1707 855.233 70.37C855.58 70.5693 855.835 70.877 856 71.293C856.173 71.709 856.26 72.2377 856.26 72.879V77H855.272V72.931C855.272 72.4803 855.211 72.112 855.09 71.826C854.977 71.5313 854.8 71.3147 854.557 71.176C854.314 71.0373 854.011 70.9723 853.647 70.981C853.361 70.981 853.092 71.033 852.841 71.137C852.59 71.2323 852.373 71.3667 852.191 71.54C852.009 71.7133 851.866 71.9127 851.762 72.138C851.658 72.3633 851.606 72.606 851.606 72.866V77H851.125C851.064 77 850.995 77 850.917 77C850.839 77 850.744 77 850.631 77ZM860.344 77.13C859.764 77.13 859.244 77.0217 858.784 76.805C858.325 76.5883 857.961 76.3023 857.692 75.947L858.381 75.349C858.633 75.6523 858.927 75.882 859.265 76.038C859.612 76.194 859.998 76.272 860.422 76.272C860.639 76.272 860.834 76.2503 861.007 76.207C861.181 76.155 861.332 76.0813 861.462 75.986C861.592 75.8907 861.692 75.778 861.761 75.648C861.831 75.518 861.865 75.375 861.865 75.219C861.865 74.933 861.74 74.6947 861.488 74.504C861.376 74.426 861.215 74.348 861.007 74.27C860.799 74.1833 860.548 74.101 860.253 74.023C859.768 73.8843 859.365 73.7457 859.044 73.607C858.724 73.4597 858.472 73.2907 858.29 73.1C858.16 72.944 858.061 72.775 857.991 72.593C857.931 72.411 857.9 72.2117 857.9 71.995C857.9 71.7177 857.957 71.462 858.069 71.228C858.191 70.994 858.355 70.7903 858.563 70.617C858.78 70.435 859.031 70.3007 859.317 70.214C859.612 70.1187 859.928 70.071 860.266 70.071C860.587 70.071 860.903 70.1143 861.215 70.201C861.527 70.2877 861.818 70.4133 862.086 70.578C862.355 70.7427 862.585 70.9377 862.775 71.163L862.177 71.813C862.013 71.6397 861.831 71.4837 861.631 71.345C861.432 71.2063 861.22 71.098 860.994 71.02C860.778 70.942 860.552 70.903 860.318 70.903C860.11 70.903 859.915 70.929 859.733 70.981C859.56 71.033 859.408 71.1067 859.278 71.202C859.157 71.2887 859.062 71.397 858.992 71.527C858.932 71.657 858.901 71.8 858.901 71.956C858.901 72.086 858.927 72.203 858.979 72.307C859.031 72.411 859.105 72.502 859.2 72.58C859.322 72.6753 859.491 72.7663 859.707 72.853C859.933 72.931 860.21 73.0133 860.539 73.1C860.921 73.204 861.241 73.3123 861.501 73.425C861.77 73.529 861.991 73.6547 862.164 73.802C862.398 73.9753 862.563 74.1747 862.658 74.4C862.762 74.6253 862.814 74.881 862.814 75.167C862.814 75.5483 862.706 75.8863 862.489 76.181C862.281 76.4757 861.991 76.7097 861.618 76.883C861.246 77.0477 860.821 77.13 860.344 77.13Z" fill="white"/>
<path d="M953.965 50V40.9H957.397C958.021 40.9 958.589 41.0127 959.1 41.238C959.62 41.4547 960.071 41.7667 960.452 42.174C960.833 42.5813 961.128 43.0623 961.336 43.617C961.544 44.1717 961.648 44.7827 961.648 45.45C961.648 46.1173 961.544 46.7327 961.336 47.296C961.128 47.8507 960.833 48.3317 960.452 48.739C960.079 49.1377 959.633 49.4497 959.113 49.675C958.593 49.8917 958.021 50 957.397 50H953.965ZM954.979 49.194L954.862 49.012H957.332C957.809 49.012 958.246 48.9297 958.645 48.765C959.052 48.5917 959.399 48.349 959.685 48.037C959.98 47.7163 960.205 47.3393 960.361 46.906C960.526 46.4727 960.608 45.9873 960.608 45.45C960.608 44.9127 960.526 44.4273 960.361 43.994C960.205 43.5607 959.98 43.188 959.685 42.876C959.39 42.5553 959.044 42.3127 958.645 42.148C958.246 41.9747 957.809 41.888 957.332 41.888H954.823L954.979 41.732V49.194ZM963.626 50V40.9H967.227C967.704 40.9 968.133 41.017 968.514 41.251C968.895 41.485 969.199 41.81 969.424 42.226C969.649 42.6333 969.762 43.0927 969.762 43.604C969.762 44.1413 969.649 44.6223 969.424 45.047C969.199 45.463 968.895 45.7967 968.514 46.048C968.133 46.2907 967.704 46.412 967.227 46.412H964.64V50H963.626ZM964.64 45.424H967.279C967.548 45.424 967.786 45.346 967.994 45.19C968.211 45.0253 968.384 44.8087 968.514 44.54C968.644 44.2627 968.709 43.9463 968.709 43.591C968.709 43.2703 968.644 42.9843 968.514 42.733C968.384 42.473 968.211 42.2693 967.994 42.122C967.786 41.966 967.548 41.888 967.279 41.888H964.64V45.424Z" fill="white"/>
<path d="M1074.58 72V63.888H1071.98V62.9H1078.3V63.888H1075.59V72H1074.58ZM1078.85 72V65.214H1079.82L1079.85 67.021L1079.74 66.774C1079.84 66.4707 1079.99 66.189 1080.2 65.929C1080.42 65.669 1080.67 65.461 1080.97 65.305C1081.26 65.149 1081.59 65.071 1081.94 65.071C1082.09 65.071 1082.23 65.084 1082.36 65.11C1082.49 65.1273 1082.6 65.1533 1082.68 65.188L1082.41 66.28C1082.3 66.228 1082.18 66.1933 1082.06 66.176C1081.95 66.15 1081.84 66.137 1081.73 66.137C1081.44 66.137 1081.17 66.189 1080.94 66.293C1080.71 66.397 1080.51 66.5443 1080.34 66.735C1080.18 66.917 1080.05 67.1293 1079.96 67.372C1079.88 67.6147 1079.83 67.8747 1079.83 68.152V72H1078.85ZM1083.96 72V65.214H1084.93V72H1083.96ZM1084.44 63.745C1084.19 63.745 1084.01 63.6843 1083.88 63.563C1083.76 63.433 1083.7 63.2597 1083.7 63.043C1083.7 62.8263 1083.76 62.653 1083.89 62.523C1084.02 62.393 1084.2 62.328 1084.44 62.328C1084.67 62.328 1084.85 62.393 1084.98 62.523C1085.11 62.6443 1085.18 62.8177 1085.18 63.043C1085.18 63.251 1085.11 63.42 1084.98 63.55C1084.85 63.68 1084.67 63.745 1084.44 63.745ZM1090.05 72.13C1089.37 72.13 1088.77 71.9827 1088.24 71.688C1087.72 71.3933 1087.32 70.9817 1087.02 70.453C1086.73 69.9243 1086.58 69.3177 1086.58 68.633C1086.58 68.1043 1086.66 67.6277 1086.83 67.203C1086.99 66.7697 1087.22 66.3927 1087.52 66.072C1087.82 65.7513 1088.18 65.5043 1088.59 65.331C1089.01 65.149 1089.46 65.058 1089.95 65.058C1090.41 65.058 1090.82 65.1403 1091.19 65.305C1091.58 65.4697 1091.9 65.6993 1092.17 65.994C1092.45 66.28 1092.66 66.6223 1092.79 67.021C1092.93 67.4197 1092.99 67.8573 1092.98 68.334L1092.96 68.789H1087.31L1087.16 67.97H1092.22L1091.99 68.191V67.879C1091.97 67.567 1091.88 67.268 1091.71 66.982C1091.55 66.6873 1091.32 66.449 1091.01 66.267C1090.72 66.085 1090.36 65.994 1089.95 65.994C1089.46 65.994 1089.04 66.0937 1088.69 66.293C1088.33 66.4837 1088.06 66.7697 1087.87 67.151C1087.68 67.5323 1087.58 68.0047 1087.58 68.568C1087.58 69.1053 1087.68 69.5733 1087.89 69.972C1088.1 70.362 1088.4 70.6653 1088.78 70.882C1089.17 71.0987 1089.63 71.207 1090.18 71.207C1090.5 71.207 1090.82 71.155 1091.13 71.051C1091.45 70.9383 1091.8 70.7217 1092.18 70.401L1092.69 71.103C1092.49 71.3023 1092.25 71.48 1091.97 71.636C1091.7 71.7833 1091.39 71.9047 1091.06 72C1090.74 72.0867 1090.4 72.13 1090.05 72.13Z" fill="white"/>
<path d="M1178.12 139V129.9H1181.55C1182.17 129.9 1182.74 130.013 1183.25 130.238C1183.77 130.455 1184.22 130.767 1184.6 131.174C1184.98 131.581 1185.28 132.062 1185.49 132.617C1185.69 133.172 1185.8 133.783 1185.8 134.45C1185.8 135.117 1185.69 135.733 1185.49 136.296C1185.28 136.851 1184.98 137.332 1184.6 137.739C1184.23 138.138 1183.78 138.45 1183.26 138.675C1182.74 138.892 1182.17 139 1181.55 139H1178.12ZM1179.13 138.194L1179.01 138.012H1181.48C1181.96 138.012 1182.4 137.93 1182.8 137.765C1183.2 137.592 1183.55 137.349 1183.84 137.037C1184.13 136.716 1184.36 136.339 1184.51 135.906C1184.68 135.473 1184.76 134.987 1184.76 134.45C1184.76 133.913 1184.68 133.427 1184.51 132.994C1184.36 132.561 1184.13 132.188 1183.84 131.876C1183.54 131.555 1183.19 131.313 1182.8 131.148C1182.4 130.975 1181.96 130.888 1181.48 130.888H1178.97L1179.13 130.732V138.194ZM1190.43 139.13C1189.97 139.13 1189.54 139.065 1189.13 138.935C1188.72 138.805 1188.35 138.61 1188.01 138.35C1187.67 138.09 1187.37 137.769 1187.11 137.388L1187.82 136.608C1188.22 137.189 1188.64 137.596 1189.06 137.83C1189.5 138.064 1189.98 138.181 1190.52 138.181C1190.91 138.181 1191.26 138.116 1191.59 137.986C1191.91 137.856 1192.16 137.674 1192.34 137.44C1192.52 137.206 1192.61 136.937 1192.61 136.634C1192.61 136.435 1192.58 136.257 1192.51 136.101C1192.45 135.945 1192.35 135.806 1192.22 135.685C1192.09 135.564 1191.93 135.455 1191.74 135.36C1191.55 135.265 1191.33 135.178 1191.08 135.1C1190.84 135.022 1190.56 134.944 1190.26 134.866C1189.82 134.762 1189.43 134.641 1189.09 134.502C1188.76 134.355 1188.48 134.177 1188.24 133.969C1188.02 133.761 1187.85 133.523 1187.72 133.254C1187.61 132.977 1187.56 132.652 1187.56 132.279C1187.56 131.924 1187.63 131.594 1187.78 131.291C1187.93 130.988 1188.14 130.728 1188.41 130.511C1188.68 130.286 1189 130.112 1189.36 129.991C1189.73 129.87 1190.12 129.809 1190.53 129.809C1191 129.809 1191.42 129.874 1191.78 130.004C1192.15 130.125 1192.48 130.307 1192.77 130.55C1193.05 130.793 1193.3 131.083 1193.51 131.421L1192.79 132.123C1192.61 131.837 1192.4 131.59 1192.17 131.382C1191.95 131.174 1191.69 131.018 1191.42 130.914C1191.15 130.801 1190.85 130.745 1190.52 130.745C1190.14 130.745 1189.8 130.81 1189.51 130.94C1189.22 131.07 1188.99 131.252 1188.83 131.486C1188.66 131.711 1188.58 131.971 1188.58 132.266C1188.58 132.483 1188.62 132.678 1188.7 132.851C1188.78 133.016 1188.9 133.163 1189.06 133.293C1189.24 133.414 1189.46 133.527 1189.73 133.631C1190 133.726 1190.33 133.817 1190.71 133.904C1191.17 134.008 1191.57 134.134 1191.92 134.281C1192.29 134.428 1192.6 134.606 1192.85 134.814C1193.11 135.013 1193.3 135.247 1193.43 135.516C1193.57 135.785 1193.64 136.092 1193.64 136.439C1193.64 136.976 1193.51 137.449 1193.24 137.856C1192.97 138.255 1192.59 138.567 1192.11 138.792C1191.63 139.017 1191.07 139.13 1190.43 139.13ZM1194.67 139L1198.16 129.9H1199.31L1202.77 139H1201.67L1199.44 133.098C1199.38 132.933 1199.31 132.743 1199.23 132.526C1199.17 132.301 1199.09 132.071 1199 131.837C1198.92 131.594 1198.84 131.36 1198.77 131.135C1198.7 130.91 1198.63 130.71 1198.57 130.537H1198.83C1198.76 130.754 1198.69 130.975 1198.61 131.2C1198.54 131.417 1198.47 131.638 1198.39 131.863C1198.31 132.08 1198.23 132.296 1198.16 132.513C1198.08 132.73 1198 132.946 1197.92 133.163L1195.71 139H1194.67ZM1196.15 136.491L1196.53 135.503H1200.83L1201.25 136.491H1196.15ZM1208.08 139V129.9H1209.06L1212.56 135.581L1212.09 135.568L1215.63 129.9H1216.55V139H1215.54V134.84C1215.54 134.06 1215.55 133.358 1215.58 132.734C1215.6 132.11 1215.65 131.49 1215.72 130.875L1215.9 131.239L1212.64 136.361H1211.94L1208.77 131.304L1208.91 130.875C1208.98 131.456 1209.03 132.054 1209.05 132.669C1209.08 133.276 1209.09 133.999 1209.09 134.84V139H1208.08ZM1221.5 139.13C1220.91 139.13 1220.38 138.978 1219.9 138.675C1219.42 138.363 1219.04 137.943 1218.77 137.414C1218.49 136.877 1218.35 136.27 1218.35 135.594C1218.35 134.909 1218.49 134.303 1218.78 133.774C1219.07 133.245 1219.45 132.829 1219.92 132.526C1220.41 132.223 1220.95 132.071 1221.55 132.071C1221.9 132.071 1222.23 132.123 1222.54 132.227C1222.84 132.331 1223.11 132.478 1223.34 132.669C1223.59 132.851 1223.79 133.068 1223.94 133.319C1224.11 133.562 1224.22 133.826 1224.28 134.112L1223.99 133.969L1224.03 132.214H1225.01V139H1224.02V137.336L1224.28 137.167C1224.22 137.427 1224.1 137.678 1223.93 137.921C1223.76 138.155 1223.54 138.363 1223.29 138.545C1223.05 138.727 1222.77 138.87 1222.46 138.974C1222.16 139.078 1221.84 139.13 1221.5 139.13ZM1221.72 138.194C1222.17 138.194 1222.57 138.086 1222.93 137.869C1223.28 137.644 1223.56 137.336 1223.76 136.946C1223.97 136.547 1224.07 136.097 1224.07 135.594C1224.07 135.091 1223.97 134.645 1223.76 134.255C1223.56 133.865 1223.28 133.557 1222.93 133.332C1222.57 133.107 1222.17 132.994 1221.72 132.994C1221.26 132.994 1220.85 133.107 1220.5 133.332C1220.15 133.557 1219.87 133.865 1219.66 134.255C1219.47 134.645 1219.37 135.091 1219.37 135.594C1219.37 136.088 1219.47 136.534 1219.66 136.933C1219.86 137.323 1220.14 137.631 1220.5 137.856C1220.85 138.081 1221.26 138.194 1221.72 138.194ZM1229.13 139.13C1228.55 139.13 1228.03 139.022 1227.57 138.805C1227.11 138.588 1226.75 138.302 1226.48 137.947L1227.17 137.349C1227.42 137.652 1227.71 137.882 1228.05 138.038C1228.4 138.194 1228.78 138.272 1229.21 138.272C1229.42 138.272 1229.62 138.25 1229.79 138.207C1229.97 138.155 1230.12 138.081 1230.25 137.986C1230.38 137.891 1230.48 137.778 1230.55 137.648C1230.62 137.518 1230.65 137.375 1230.65 137.219C1230.65 136.933 1230.53 136.695 1230.27 136.504C1230.16 136.426 1230 136.348 1229.79 136.27C1229.59 136.183 1229.33 136.101 1229.04 136.023C1228.55 135.884 1228.15 135.746 1227.83 135.607C1227.51 135.46 1227.26 135.291 1227.08 135.1C1226.95 134.944 1226.85 134.775 1226.78 134.593C1226.72 134.411 1226.69 134.212 1226.69 133.995C1226.69 133.718 1226.74 133.462 1226.86 133.228C1226.98 132.994 1227.14 132.79 1227.35 132.617C1227.57 132.435 1227.82 132.301 1228.1 132.214C1228.4 132.119 1228.71 132.071 1229.05 132.071C1229.37 132.071 1229.69 132.114 1230 132.201C1230.31 132.288 1230.6 132.413 1230.87 132.578C1231.14 132.743 1231.37 132.938 1231.56 133.163L1230.96 133.813C1230.8 133.64 1230.62 133.484 1230.42 133.345C1230.22 133.206 1230.01 133.098 1229.78 133.02C1229.56 132.942 1229.34 132.903 1229.1 132.903C1228.9 132.903 1228.7 132.929 1228.52 132.981C1228.35 133.033 1228.19 133.107 1228.06 133.202C1227.94 133.289 1227.85 133.397 1227.78 133.527C1227.72 133.657 1227.69 133.8 1227.69 133.956C1227.69 134.086 1227.71 134.203 1227.77 134.307C1227.82 134.411 1227.89 134.502 1227.99 134.58C1228.11 134.675 1228.28 134.766 1228.49 134.853C1228.72 134.931 1229 135.013 1229.33 135.1C1229.71 135.204 1230.03 135.312 1230.29 135.425C1230.56 135.529 1230.78 135.655 1230.95 135.802C1231.18 135.975 1231.35 136.175 1231.44 136.4C1231.55 136.625 1231.6 136.881 1231.6 137.167C1231.6 137.548 1231.49 137.886 1231.28 138.181C1231.07 138.476 1230.78 138.71 1230.4 138.883C1230.03 139.048 1229.61 139.13 1229.13 139.13ZM1234.06 139V130.433H1235.04V139H1234.06ZM1232.53 133.15V132.214H1236.75V133.15H1232.53ZM1240.88 139.13C1240.2 139.13 1239.6 138.983 1239.07 138.688C1238.55 138.393 1238.14 137.982 1237.85 137.453C1237.55 136.924 1237.41 136.318 1237.41 135.633C1237.41 135.104 1237.49 134.628 1237.65 134.203C1237.82 133.77 1238.05 133.393 1238.34 133.072C1238.65 132.751 1239.01 132.504 1239.42 132.331C1239.84 132.149 1240.29 132.058 1240.77 132.058C1241.23 132.058 1241.65 132.14 1242.02 132.305C1242.4 132.47 1242.73 132.699 1243 132.994C1243.27 133.28 1243.48 133.622 1243.62 134.021C1243.76 134.42 1243.82 134.857 1243.8 135.334L1243.79 135.789H1238.14L1237.99 134.97H1243.05L1242.82 135.191V134.879C1242.8 134.567 1242.71 134.268 1242.54 133.982C1242.38 133.687 1242.14 133.449 1241.84 133.267C1241.55 133.085 1241.19 132.994 1240.77 132.994C1240.29 132.994 1239.87 133.094 1239.51 133.293C1239.16 133.484 1238.89 133.77 1238.69 134.151C1238.5 134.532 1238.41 135.005 1238.41 135.568C1238.41 136.105 1238.51 136.573 1238.72 136.972C1238.93 137.362 1239.22 137.665 1239.6 137.882C1239.99 138.099 1240.46 138.207 1241.01 138.207C1241.33 138.207 1241.65 138.155 1241.96 138.051C1242.28 137.938 1242.63 137.722 1243.01 137.401L1243.52 138.103C1243.32 138.302 1243.08 138.48 1242.8 138.636C1242.53 138.783 1242.22 138.905 1241.89 139C1241.56 139.087 1241.23 139.13 1240.88 139.13ZM1245.19 139V132.214H1246.16L1246.19 134.021L1246.09 133.774C1246.18 133.471 1246.33 133.189 1246.54 132.929C1246.76 132.669 1247.01 132.461 1247.31 132.305C1247.6 132.149 1247.93 132.071 1248.28 132.071C1248.43 132.071 1248.57 132.084 1248.7 132.11C1248.83 132.127 1248.94 132.153 1249.02 132.188L1248.75 133.28C1248.64 133.228 1248.52 133.193 1248.4 133.176C1248.29 133.15 1248.18 133.137 1248.07 133.137C1247.78 133.137 1247.52 133.189 1247.28 133.293C1247.05 133.397 1246.85 133.544 1246.68 133.735C1246.52 133.917 1246.39 134.129 1246.31 134.372C1246.22 134.615 1246.18 134.875 1246.18 135.152V139H1245.19ZM1251.18 141.99L1252.49 138.792L1252.59 139.715L1249.18 132.214H1250.28L1252.61 137.414C1252.68 137.553 1252.75 137.717 1252.82 137.908C1252.89 138.09 1252.95 138.272 1253.01 138.454L1252.65 138.415C1252.71 138.268 1252.77 138.116 1252.82 137.96C1252.88 137.804 1252.94 137.652 1252.99 137.505L1255.03 132.214H1256.15L1253.4 139L1252.23 141.99H1251.18Z" fill="white"/>
<path fill-rule="evenodd" clip-rule="evenodd" d="M1261.74 100.12C1256.68 100.778 1252.24 104.675 1250.94 109.613C1249.75 114.135 1251.03 118.893 1254.32 122.173C1259.44 127.274 1267.59 127.276 1272.67 122.177C1275.34 119.492 1276.67 116.024 1276.46 112.28C1276.38 110.922 1276.03 109.284 1275.76 108.979C1275.37 108.554 1274.39 108.874 1274.39 109.424C1274.39 109.534 1274.49 110.072 1274.61 110.619C1275.05 112.636 1274.85 115.166 1274.07 117.171C1272.98 119.975 1270.47 122.49 1267.66 123.575C1265.03 124.594 1261.96 124.594 1259.33 123.575C1256.52 122.491 1254 119.97 1252.93 117.178C1251.9 114.508 1251.89 111.489 1252.92 108.834C1254.01 106.033 1256.53 103.511 1259.32 102.434C1261.37 101.643 1263.83 101.44 1265.88 101.893C1266.43 102.013 1266.96 102.112 1267.07 102.112C1267.62 102.112 1267.94 101.129 1267.52 100.745C1266.91 100.192 1263.79 99.8539 1261.74 100.12ZM1269.81 101.64C1268.9 102.542 1268.13 103.389 1268.09 103.523C1268.06 103.657 1267.95 104.646 1267.84 105.719L1267.65 107.671L1265.19 110.148C1263 112.342 1262.72 112.666 1262.72 112.98C1262.72 113.442 1263.06 113.78 1263.52 113.78C1263.83 113.78 1264.16 113.499 1266.35 111.313L1268.83 108.845L1270.78 108.656C1271.85 108.552 1272.84 108.44 1272.98 108.406C1273.11 108.373 1273.96 107.601 1274.86 106.693C1276.61 104.929 1276.72 104.741 1276.29 104.211C1276.1 103.974 1275.94 103.939 1274.5 103.82C1273.64 103.748 1272.9 103.663 1272.87 103.631C1272.84 103.599 1272.75 102.864 1272.68 101.997C1272.56 100.562 1272.53 100.403 1272.29 100.211C1271.76 99.7821 1271.57 99.8906 1269.81 101.64ZM1271.2 103.753C1271.3 105.134 1271.35 105.183 1272.63 105.287C1273.08 105.324 1273.51 105.376 1273.6 105.404C1273.71 105.439 1273.54 105.678 1273.06 106.16L1272.36 106.865L1270.93 107.003C1270.14 107.079 1269.46 107.112 1269.42 107.075C1269.39 107.038 1269.42 106.369 1269.49 105.588L1269.63 104.168L1270.3 103.479C1270.68 103.1 1271.01 102.811 1271.06 102.836C1271.1 102.862 1271.16 103.274 1271.2 103.753ZM1262.08 104.167C1260.92 104.378 1260.19 104.63 1259.23 105.151C1256.05 106.884 1254.13 110.546 1254.59 113.983C1255.02 117.144 1256.78 119.636 1259.55 120.997C1260.96 121.691 1261.97 121.923 1263.55 121.917C1265.07 121.912 1266.16 121.647 1267.55 120.951C1270.3 119.574 1272.12 116.852 1272.44 113.641C1272.51 112.859 1272.33 111.123 1272.11 110.605C1271.82 109.905 1271.09 109.839 1270.67 110.476C1270.52 110.711 1270.52 110.818 1270.68 111.564C1270.8 112.133 1270.84 112.706 1270.8 113.397C1270.63 116.43 1268.7 118.943 1265.77 119.963C1264.99 120.237 1264.73 120.272 1263.5 120.272C1262.26 120.272 1262.01 120.237 1261.22 119.963C1258.94 119.172 1257.33 117.559 1256.53 115.28C1256.26 114.49 1256.22 114.238 1256.22 113.003C1256.22 111.767 1256.26 111.515 1256.53 110.726C1257.57 107.766 1260.1 105.847 1263.16 105.697C1263.91 105.661 1264.44 105.699 1264.98 105.826C1265.68 105.99 1265.77 105.99 1266.02 105.831C1266.63 105.428 1266.58 104.673 1265.91 104.395C1265.49 104.217 1264.02 103.997 1263.35 104.011C1263.09 104.017 1262.52 104.087 1262.08 104.167ZM1262.5 108.229C1261.69 108.396 1260.69 108.954 1260.06 109.583C1258.13 111.54 1258.17 114.593 1260.16 116.488C1262.09 118.329 1264.91 118.329 1266.84 116.488C1267.64 115.717 1268.13 114.784 1268.3 113.681C1268.42 112.949 1268.41 112.864 1268.2 112.584C1268.04 112.372 1267.86 112.27 1267.58 112.247C1267.06 112.202 1266.72 112.609 1266.72 113.278C1266.72 113.867 1266.17 114.994 1265.68 115.405C1264.39 116.497 1262.6 116.497 1261.31 115.405C1261.11 115.24 1260.8 114.799 1260.61 114.425C1259.55 112.296 1261.08 109.785 1263.45 109.781C1263.97 109.78 1264.2 109.725 1264.43 109.55C1264.79 109.26 1264.83 108.689 1264.49 108.387C1264.23 108.146 1263.26 108.07 1262.5 108.229Z" fill="white"/>
<path d="M202 43.5034V31.1301C202 31.0863 202.012 31.0434 202.034 31.0055C202.056 30.9677 202.087 30.9363 202.125 30.9144C202.369 30.7712 203.029 30.5005 204.501 30.5005C206.501 30.5005 209.033 32.0009 210.502 32.0009C211.331 31.9987 212.152 31.8311 212.916 31.508C212.925 31.504 212.936 31.5024 212.946 31.5034C212.956 31.5044 212.966 31.5079 212.975 31.5137C212.983 31.5194 212.99 31.5271 212.995 31.5362C213 31.5453 213.002 31.5555 213.002 31.5658V38.4223C213.002 38.4465 212.995 38.4701 212.982 38.4904C212.969 38.5107 212.95 38.5266 212.928 38.5364C212.67 38.6492 211.763 39.0024 210.502 39.0024C209.002 39.0024 206.501 38.0022 204.501 38.0022C202.5 38.0022 202 38.5023 202 38.5023" stroke="white" stroke-width="1.00189" stroke-miterlimit="10" stroke-linecap="round"/>
<path d="M202 43.5V51.5" stroke="white"/>
<path d="M397 51.5034V39.1301C397 39.0863 397.012 39.0434 397.034 39.0055C397.056 38.9677 397.087 38.9363 397.125 38.9144C397.369 38.7712 398.029 38.5005 399.501 38.5005C401.501 38.5005 404.033 40.0009 405.502 40.0009C406.331 39.9987 407.152 39.8311 407.916 39.508C407.925 39.504 407.936 39.5024 407.946 39.5034C407.956 39.5044 407.966 39.5079 407.975 39.5137C407.983 39.5194 407.99 39.5271 407.995 39.5362C408 39.5453 408.002 39.5555 408.002 39.5658V46.4223C408.002 46.4465 407.995 46.4701 407.982 46.4904C407.969 46.5107 407.95 46.5266 407.928 46.5364C407.67 46.6492 406.763 47.0024 405.502 47.0024C404.002 47.0024 401.501 46.0022 399.501 46.0022C397.5 46.0022 397 46.5023 397 46.5023" stroke="white" stroke-width="1.00189" stroke-miterlimit="10" stroke-linecap="round"/>
<path d="M397 51.5V59.5" stroke="white"/>
<path d="M595 147.503V135.13C595 135.086 595.012 135.043 595.034 135.006C595.056 134.968 595.087 134.936 595.125 134.914C595.369 134.771 596.029 134.501 597.501 134.501C599.501 134.501 602.033 136.001 603.502 136.001C604.331 135.999 605.152 135.831 605.916 135.508C605.925 135.504 605.936 135.502 605.946 135.503C605.956 135.504 605.966 135.508 605.975 135.514C605.983 135.519 605.99 135.527 605.995 135.536C606 135.545 606.002 135.555 606.002 135.566V142.422C606.002 142.446 605.995 142.47 605.982 142.49C605.969 142.511 605.95 142.527 605.928 142.536C605.67 142.649 604.763 143.002 603.502 143.002C602.002 143.002 599.501 142.002 597.501 142.002C595.5 142.002 595 142.502 595 142.502" stroke="white" stroke-width="1.00189" stroke-miterlimit="10" stroke-linecap="round"/>
<path d="M595 147.5V155.5" stroke="white"/>
<path d="M799 48.5034V36.1301C799 36.0863 799.012 36.0434 799.034 36.0055C799.056 35.9677 799.087 35.9363 799.125 35.9144C799.369 35.7712 800.029 35.5005 801.501 35.5005C803.501 35.5005 806.033 37.0009 807.502 37.0009C808.331 36.9987 809.152 36.8311 809.916 36.508C809.925 36.504 809.936 36.5024 809.946 36.5034C809.956 36.5044 809.966 36.5079 809.975 36.5137C809.983 36.5194 809.99 36.5271 809.995 36.5362C810 36.5453 810.002 36.5555 810.002 36.5658V43.4223C810.002 43.4465 809.995 43.4701 809.982 43.4904C809.969 43.5107 809.95 43.5266 809.928 43.5364C809.67 43.6492 808.763 44.0024 807.502 44.0024C806.002 44.0024 803.501 43.0022 801.501 43.0022C799.5 43.0022 799 43.5023 799 43.5023" stroke="white" stroke-width="1.00189" stroke-miterlimit="10" stroke-linecap="round"/>
<path d="M799 48.5V56.5" stroke="white"/>
<path d="M964 14.5034V2.13006C964 2.08632 964.012 2.04338 964.034 2.00553C964.056 1.96769 964.087 1.93626 964.125 1.91439C964.369 1.77123 965.029 1.50055 966.501 1.50055C968.501 1.50055 971.033 3.00088 972.502 3.00088C973.331 2.99872 974.152 2.83115 974.916 2.50796C974.925 2.50399 974.936 2.50243 974.946 2.50343C974.956 2.50443 974.966 2.50794 974.975 2.51367C974.983 2.51939 974.99 2.52714 974.995 2.53623C975 2.54533 975.002 2.55548 975.002 2.56578V9.42228C975.002 9.44648 974.995 9.47015 974.982 9.4904C974.969 9.51065 974.95 9.52662 974.928 9.53636C974.67 9.6492 973.763 10.0024 972.502 10.0024C971.002 10.0024 968.501 9.00218 966.501 9.00218C964.5 9.00218 964 9.50229 964 9.50229" stroke="white" stroke-width="1.00189" stroke-miterlimit="10" stroke-linecap="round"/>
<path d="M964 14.5V22.5" stroke="white"/>
<path d="M1088 48.5034V36.1301C1088 36.0863 1088.01 36.0434 1088.03 36.0055C1088.06 35.9677 1088.09 35.9363 1088.13 35.9144C1088.37 35.7712 1089.03 35.5005 1090.5 35.5005C1092.5 35.5005 1095.03 37.0009 1096.5 37.0009C1097.33 36.9987 1098.15 36.8311 1098.92 36.508C1098.93 36.504 1098.94 36.5024 1098.95 36.5034C1098.96 36.5044 1098.97 36.5079 1098.97 36.5137C1098.98 36.5194 1098.99 36.5271 1099 36.5362C1099 36.5453 1099 36.5555 1099 36.5658V43.4223C1099 43.4465 1099 43.4701 1098.98 43.4904C1098.97 43.5107 1098.95 43.5266 1098.93 43.5364C1098.67 43.6492 1097.76 44.0024 1096.5 44.0024C1095 44.0024 1092.5 43.0022 1090.5 43.0022C1088.5 43.0022 1088 43.5023 1088 43.5023" stroke="white" stroke-width="1.00189" stroke-miterlimit="10" stroke-linecap="round"/>
<path d="M1088 48.5V56.5" stroke="white"/>
</svg>
